<mxfile host="app.diagrams.net" modified="2020-09-30T08:19:11.357Z" agent="5.0 (Macintosh; Intel Mac OS X 10_14_5) AppleWebKit/537.36 (KHTML, like Gecko) Chrome/85.0.4183.121 Safari/537.36" etag="Vhdsmp1AN1MWtx4LV6te" version="13.7.6" type="github">
  <diagram id="BkpU10VribQ9wAvCWP1K" name="Page-1">
    <mxGraphModel dx="2754" dy="2180" grid="1" gridSize="10" guides="1" tooltips="1" connect="1" arrows="1" fold="1" page="1" pageScale="1" pageWidth="827" pageHeight="1169" math="0" shadow="0">
      <root>
        <mxCell id="0" />
        <mxCell id="1" parent="0" />
        <mxCell id="NTSCA3tsp65PEvh5jDiG-1" value="&lt;div&gt;ypp-gd-service&lt;/div&gt;" style="rounded=1;whiteSpace=wrap;html=1;align=center;fillColor=#d5e8d4;strokeColor=#82b366;opacity=50;verticalAlign=bottom;" vertex="1" parent="1">
          <mxGeometry x="-150" y="-330" width="910" height="590" as="geometry" />
        </mxCell>
        <mxCell id="NTSCA3tsp65PEvh5jDiG-5" value="" style="edgeStyle=orthogonalEdgeStyle;rounded=0;orthogonalLoop=1;jettySize=auto;html=1;entryX=0;entryY=0.5;entryDx=0;entryDy=0;strokeColor=#FF8987;" edge="1" parent="1" source="NTSCA3tsp65PEvh5jDiG-6" target="NTSCA3tsp65PEvh5jDiG-8">
          <mxGeometry relative="1" as="geometry">
            <mxPoint x="-160" y="30" as="targetPoint" />
          </mxGeometry>
        </mxCell>
        <mxCell id="NTSCA3tsp65PEvh5jDiG-6" value="移动端埋点数据Topic：&lt;br&gt;&lt;font style=&quot;font-size: 8px&quot;&gt;YPP-BURYING-POINT&lt;br&gt;服务端埋点：&lt;br&gt;YPP-SERVER-BURYING-POINT&lt;/font&gt;" style="strokeWidth=2;html=1;shape=mxgraph.flowchart.direct_data;whiteSpace=wrap;fillColor=#f5f5f5;strokeColor=#666666;fontColor=#333333;" vertex="1" parent="1">
          <mxGeometry x="-440" y="-5" width="222" height="70" as="geometry" />
        </mxCell>
        <mxCell id="NTSCA3tsp65PEvh5jDiG-7" value="" style="edgeStyle=orthogonalEdgeStyle;rounded=0;orthogonalLoop=1;jettySize=auto;html=1;strokeColor=#FF8987;" edge="1" parent="1" source="NTSCA3tsp65PEvh5jDiG-8" target="NTSCA3tsp65PEvh5jDiG-14">
          <mxGeometry relative="1" as="geometry" />
        </mxCell>
        <mxCell id="NTSCA3tsp65PEvh5jDiG-8" value="&lt;pre style=&quot;font-family: &amp;#34;menlo&amp;#34; ; font-size: 9pt&quot;&gt;&lt;pre style=&quot;font-family: &amp;#34;menlo&amp;#34; ; font-size: 9pt&quot;&gt;&lt;pre style=&quot;font-family: &amp;#34;menlo&amp;#34; ; font-size: 9pt&quot;&gt;&lt;pre style=&quot;font-size: 9pt ; font-family: &amp;#34;menlo&amp;#34;&quot;&gt;BuryingPointConsumer&lt;/pre&gt;&lt;/pre&gt;&lt;/pre&gt;&lt;/pre&gt;" style="rounded=1;whiteSpace=wrap;html=1;fillColor=#dae8fc;strokeColor=#6c8ebf;" vertex="1" parent="1">
          <mxGeometry x="-190" width="160" height="60" as="geometry" />
        </mxCell>
        <mxCell id="NTSCA3tsp65PEvh5jDiG-10" style="edgeStyle=orthogonalEdgeStyle;rounded=0;orthogonalLoop=1;jettySize=auto;html=1;exitX=1;exitY=0.5;exitDx=0;exitDy=0;entryX=0;entryY=0.5;entryDx=0;entryDy=0;strokeColor=#FF8987;" edge="1" parent="1" source="NTSCA3tsp65PEvh5jDiG-14" target="NTSCA3tsp65PEvh5jDiG-22">
          <mxGeometry relative="1" as="geometry" />
        </mxCell>
        <mxCell id="NTSCA3tsp65PEvh5jDiG-11" style="edgeStyle=orthogonalEdgeStyle;rounded=0;orthogonalLoop=1;jettySize=auto;html=1;exitX=1;exitY=0.5;exitDx=0;exitDy=0;entryX=0;entryY=0.5;entryDx=0;entryDy=0;strokeColor=#FF8987;" edge="1" parent="1" source="NTSCA3tsp65PEvh5jDiG-14" target="NTSCA3tsp65PEvh5jDiG-18">
          <mxGeometry relative="1" as="geometry" />
        </mxCell>
        <mxCell id="NTSCA3tsp65PEvh5jDiG-14" value="&lt;pre style=&quot;font-family: &amp;#34;menlo&amp;#34; ; font-size: 9pt&quot;&gt;&lt;pre style=&quot;font-family: &amp;#34;menlo&amp;#34; ; font-size: 9pt&quot;&gt;&lt;pre style=&quot;font-family: &amp;#34;menlo&amp;#34; ; font-size: 9pt&quot;&gt;&lt;pre style=&quot;font-size: 9pt ; font-family: &amp;#34;menlo&amp;#34;&quot;&gt;getConfig&lt;/pre&gt;&lt;pre style=&quot;font-size: 9pt ; font-family: &amp;#34;menlo&amp;#34;&quot;&gt;（确定具体埋点，&lt;/pre&gt;&lt;pre style=&quot;font-size: 9pt ; font-family: &amp;#34;menlo&amp;#34;&quot;&gt;获取配置）&lt;/pre&gt;&lt;/pre&gt;&lt;/pre&gt;&lt;/pre&gt;" style="rounded=1;whiteSpace=wrap;html=1;fillColor=#fff2cc;strokeColor=#d6b656;" vertex="1" parent="1">
          <mxGeometry x="12.5" y="-15" width="108.75" height="90" as="geometry" />
        </mxCell>
        <mxCell id="NTSCA3tsp65PEvh5jDiG-17" style="edgeStyle=orthogonalEdgeStyle;rounded=0;orthogonalLoop=1;jettySize=auto;html=1;exitX=1;exitY=0.5;exitDx=0;exitDy=0;entryX=0;entryY=0.5;entryDx=0;entryDy=0;strokeColor=#FF8987;" edge="1" parent="1" source="NTSCA3tsp65PEvh5jDiG-18" target="NTSCA3tsp65PEvh5jDiG-167">
          <mxGeometry relative="1" as="geometry">
            <mxPoint x="370" y="40" as="targetPoint" />
          </mxGeometry>
        </mxCell>
        <mxCell id="NTSCA3tsp65PEvh5jDiG-18" value="&lt;pre style=&quot;font-family: &amp;#34;menlo&amp;#34; ; font-size: 9pt&quot;&gt;&lt;pre style=&quot;font-family: &amp;#34;menlo&amp;#34; ; font-size: 9pt&quot;&gt;&lt;pre style=&quot;font-family: &amp;#34;menlo&amp;#34; ; font-size: 9pt&quot;&gt;&lt;pre style=&quot;font-size: 9pt ; font-family: &amp;#34;menlo&amp;#34;&quot;&gt;&lt;pre style=&quot;font-size: 9pt ; font-family: &amp;#34;menlo&amp;#34;&quot;&gt;JsonFilters&lt;/pre&gt;&lt;/pre&gt;&lt;pre style=&quot;font-size: 9pt ; font-family: &amp;#34;menlo&amp;#34;&quot;&gt;&lt;pre style=&quot;font-size: 9pt ; font-family: &amp;#34;menlo&amp;#34;&quot;&gt;（数据处理）&lt;/pre&gt;&lt;/pre&gt;&lt;/pre&gt;&lt;/pre&gt;&lt;/pre&gt;" style="rounded=1;whiteSpace=wrap;html=1;fillColor=#a0522d;strokeColor=#6D1F00;fontColor=#ffffff;" vertex="1" parent="1">
          <mxGeometry x="193.75" y="-30" width="126.25" height="50" as="geometry" />
        </mxCell>
        <mxCell id="NTSCA3tsp65PEvh5jDiG-19" style="edgeStyle=orthogonalEdgeStyle;rounded=0;orthogonalLoop=1;jettySize=auto;html=1;exitX=1;exitY=0.5;exitDx=0;exitDy=0;entryX=0;entryY=0.5;entryDx=0;entryDy=0;strokeColor=#FF8987;" edge="1" parent="1" source="NTSCA3tsp65PEvh5jDiG-22" target="NTSCA3tsp65PEvh5jDiG-169">
          <mxGeometry relative="1" as="geometry">
            <mxPoint x="370" y="40" as="targetPoint" />
          </mxGeometry>
        </mxCell>
        <mxCell id="NTSCA3tsp65PEvh5jDiG-22" value="&lt;pre style=&quot;font-family: &amp;#34;menlo&amp;#34; ; font-size: 9pt&quot;&gt;&lt;pre style=&quot;font-family: &amp;#34;menlo&amp;#34; ; font-size: 9pt&quot;&gt;&lt;pre style=&quot;font-family: &amp;#34;menlo&amp;#34; ; font-size: 9pt&quot;&gt;&lt;pre style=&quot;font-size: 9pt ; font-family: &amp;#34;menlo&amp;#34;&quot;&gt;&lt;pre style=&quot;font-size: 9pt ; font-family: &amp;#34;menlo&amp;#34;&quot;&gt;JsonFilters&lt;/pre&gt;&lt;/pre&gt;&lt;pre style=&quot;font-size: 9pt ; font-family: &amp;#34;menlo&amp;#34;&quot;&gt;&lt;pre style=&quot;font-size: 9pt ; font-family: &amp;#34;menlo&amp;#34;&quot;&gt;（数据处理）&lt;/pre&gt;&lt;/pre&gt;&lt;/pre&gt;&lt;/pre&gt;&lt;/pre&gt;" style="rounded=1;whiteSpace=wrap;html=1;fillColor=#a0522d;strokeColor=#6D1F00;fontColor=#ffffff;" vertex="1" parent="1">
          <mxGeometry x="193.75" y="35" width="126.25" height="50" as="geometry" />
        </mxCell>
        <mxCell id="NTSCA3tsp65PEvh5jDiG-90" value="" style="edgeStyle=orthogonalEdgeStyle;rounded=0;orthogonalLoop=1;jettySize=auto;html=1;entryX=0;entryY=0.5;entryDx=0;entryDy=0;strokeColor=#FF8987;" edge="1" parent="1" source="NTSCA3tsp65PEvh5jDiG-91" target="NTSCA3tsp65PEvh5jDiG-92">
          <mxGeometry relative="1" as="geometry">
            <mxPoint x="-160" y="170" as="targetPoint" />
          </mxGeometry>
        </mxCell>
        <mxCell id="NTSCA3tsp65PEvh5jDiG-91" value="Maserati数据Topic：&lt;span style=&quot;font-size: 8px&quot;&gt;maserati_xxxx&lt;/span&gt;" style="strokeWidth=2;html=1;shape=mxgraph.flowchart.direct_data;whiteSpace=wrap;fillColor=#f5f5f5;strokeColor=#666666;fontColor=#333333;" vertex="1" parent="1">
          <mxGeometry x="-440" y="140" width="222" height="60" as="geometry" />
        </mxCell>
        <mxCell id="NTSCA3tsp65PEvh5jDiG-108" style="edgeStyle=orthogonalEdgeStyle;rounded=0;orthogonalLoop=1;jettySize=auto;html=1;exitX=1;exitY=0.5;exitDx=0;exitDy=0;entryX=0;entryY=0.5;entryDx=0;entryDy=0;startArrow=none;startFill=0;strokeColor=#FF8987;" edge="1" parent="1" source="NTSCA3tsp65PEvh5jDiG-92" target="NTSCA3tsp65PEvh5jDiG-107">
          <mxGeometry relative="1" as="geometry" />
        </mxCell>
        <mxCell id="NTSCA3tsp65PEvh5jDiG-92" value="&lt;pre style=&quot;font-family: &amp;#34;menlo&amp;#34; ; font-size: 9pt&quot;&gt;&lt;pre style=&quot;font-family: &amp;#34;menlo&amp;#34; ; font-size: 9pt&quot;&gt;&lt;pre style=&quot;font-family: &amp;#34;menlo&amp;#34; ; font-size: 9pt&quot;&gt;&lt;pre style=&quot;font-size: 9pt ; font-family: &amp;#34;menlo&amp;#34;&quot;&gt;MaseratiRealtime&lt;/pre&gt;&lt;pre style=&quot;font-size: 9pt ; font-family: &amp;#34;menlo&amp;#34;&quot;&gt;FeatureConsumer&lt;/pre&gt;&lt;/pre&gt;&lt;/pre&gt;&lt;/pre&gt;" style="rounded=1;whiteSpace=wrap;html=1;fillColor=#dae8fc;strokeColor=#6c8ebf;" vertex="1" parent="1">
          <mxGeometry x="-190" y="140" width="160" height="60" as="geometry" />
        </mxCell>
        <mxCell id="NTSCA3tsp65PEvh5jDiG-96" style="edgeStyle=orthogonalEdgeStyle;rounded=0;orthogonalLoop=1;jettySize=auto;html=1;exitX=0.5;exitY=1;exitDx=0;exitDy=0;entryX=0.5;entryY=0;entryDx=0;entryDy=0;startArrow=classic;startFill=1;strokeColor=#FFCD5A;" edge="1" parent="1" source="NTSCA3tsp65PEvh5jDiG-94" target="NTSCA3tsp65PEvh5jDiG-95">
          <mxGeometry relative="1" as="geometry" />
        </mxCell>
        <mxCell id="NTSCA3tsp65PEvh5jDiG-97" value="配置变更通知&lt;br&gt;broadcast" style="edgeLabel;html=1;align=center;verticalAlign=middle;resizable=0;points=[];" vertex="1" connectable="0" parent="NTSCA3tsp65PEvh5jDiG-96">
          <mxGeometry x="0.1556" y="-1" relative="1" as="geometry">
            <mxPoint x="1" y="-12" as="offset" />
          </mxGeometry>
        </mxCell>
        <mxCell id="NTSCA3tsp65PEvh5jDiG-94" value="&lt;div&gt;profile-manage-service&lt;/div&gt;" style="rounded=1;whiteSpace=wrap;html=1;align=center;fillColor=#d5e8d4;strokeColor=#82b366;opacity=50;" vertex="1" parent="1">
          <mxGeometry x="180.31" y="-470" width="161.25" height="50" as="geometry" />
        </mxCell>
        <mxCell id="NTSCA3tsp65PEvh5jDiG-101" style="edgeStyle=orthogonalEdgeStyle;rounded=0;orthogonalLoop=1;jettySize=auto;html=1;exitX=0.5;exitY=1;exitDx=0;exitDy=0;startArrow=classic;startFill=1;strokeColor=#FFCD5A;" edge="1" parent="1" source="NTSCA3tsp65PEvh5jDiG-95" target="NTSCA3tsp65PEvh5jDiG-99">
          <mxGeometry relative="1" as="geometry" />
        </mxCell>
        <mxCell id="NTSCA3tsp65PEvh5jDiG-95" value="&lt;pre style=&quot;font-family: &amp;#34;menlo&amp;#34; ; font-size: 9pt&quot;&gt;&lt;pre style=&quot;font-family: &amp;#34;menlo&amp;#34; ; font-size: 9pt&quot;&gt;&lt;pre style=&quot;font-family: &amp;#34;menlo&amp;#34; ; font-size: 9pt&quot;&gt;&lt;pre style=&quot;font-size: 9pt ; font-family: &amp;#34;menlo&amp;#34;&quot;&gt;ConfigApi&lt;/pre&gt;&lt;/pre&gt;&lt;/pre&gt;&lt;/pre&gt;" style="rounded=1;whiteSpace=wrap;html=1;fillColor=#dae8fc;strokeColor=#6c8ebf;" vertex="1" parent="1">
          <mxGeometry x="205.62" y="-348" width="110" height="40" as="geometry" />
        </mxCell>
        <mxCell id="NTSCA3tsp65PEvh5jDiG-161" style="edgeStyle=orthogonalEdgeStyle;rounded=0;orthogonalLoop=1;jettySize=auto;html=1;exitX=0;exitY=0.5;exitDx=0;exitDy=0;entryX=0.5;entryY=0;entryDx=0;entryDy=0;startArrow=none;startFill=0;strokeColor=#FFCD5A;" edge="1" parent="1" source="NTSCA3tsp65PEvh5jDiG-98" target="NTSCA3tsp65PEvh5jDiG-145">
          <mxGeometry relative="1" as="geometry" />
        </mxCell>
        <mxCell id="NTSCA3tsp65PEvh5jDiG-162" style="edgeStyle=orthogonalEdgeStyle;rounded=0;orthogonalLoop=1;jettySize=auto;html=1;exitX=0;exitY=0.5;exitDx=0;exitDy=0;entryX=0.5;entryY=0;entryDx=0;entryDy=0;startArrow=none;startFill=0;strokeColor=#FFCD5A;" edge="1" parent="1" source="NTSCA3tsp65PEvh5jDiG-98" target="NTSCA3tsp65PEvh5jDiG-14">
          <mxGeometry relative="1" as="geometry">
            <Array as="points">
              <mxPoint x="-13" y="-240" />
              <mxPoint x="-13" y="-40" />
              <mxPoint x="67" y="-40" />
            </Array>
          </mxGeometry>
        </mxCell>
        <mxCell id="NTSCA3tsp65PEvh5jDiG-163" style="edgeStyle=orthogonalEdgeStyle;rounded=0;orthogonalLoop=1;jettySize=auto;html=1;exitX=0;exitY=0.5;exitDx=0;exitDy=0;entryX=0.5;entryY=0;entryDx=0;entryDy=0;startArrow=none;startFill=0;strokeColor=#FFCD5A;" edge="1" parent="1" source="NTSCA3tsp65PEvh5jDiG-98" target="NTSCA3tsp65PEvh5jDiG-107">
          <mxGeometry relative="1" as="geometry">
            <Array as="points">
              <mxPoint x="-13" y="-240" />
              <mxPoint x="-13" y="100" />
              <mxPoint x="67" y="100" />
            </Array>
          </mxGeometry>
        </mxCell>
        <mxCell id="NTSCA3tsp65PEvh5jDiG-164" value="配置获取" style="edgeLabel;html=1;align=center;verticalAlign=middle;resizable=0;points=[];" vertex="1" connectable="0" parent="NTSCA3tsp65PEvh5jDiG-163">
          <mxGeometry x="-0.8221" y="-4" relative="1" as="geometry">
            <mxPoint x="7.0600000000000005" y="28.759999999999998" as="offset" />
          </mxGeometry>
        </mxCell>
        <mxCell id="NTSCA3tsp65PEvh5jDiG-98" value="&lt;pre style=&quot;font-family: &amp;#34;menlo&amp;#34; ; font-size: 9pt&quot;&gt;&lt;pre style=&quot;font-family: &amp;#34;menlo&amp;#34; ; font-size: 9pt&quot;&gt;&lt;pre style=&quot;font-family: &amp;#34;menlo&amp;#34; ; font-size: 9pt&quot;&gt;&lt;pre style=&quot;font-size: 9pt ; font-family: &amp;#34;menlo&amp;#34;&quot;&gt;配置缓存&lt;/pre&gt;&lt;/pre&gt;&lt;/pre&gt;&lt;/pre&gt;" style="rounded=1;whiteSpace=wrap;html=1;fillColor=#dae8fc;strokeColor=#6c8ebf;" vertex="1" parent="1">
          <mxGeometry x="6.88" y="-275" width="120" height="70" as="geometry" />
        </mxCell>
        <mxCell id="NTSCA3tsp65PEvh5jDiG-102" style="edgeStyle=orthogonalEdgeStyle;rounded=0;orthogonalLoop=1;jettySize=auto;html=1;exitX=1;exitY=0.5;exitDx=0;exitDy=0;entryX=0;entryY=0.5;entryDx=0;entryDy=0;startArrow=classic;startFill=1;strokeColor=#FFCD5A;" edge="1" parent="1" source="NTSCA3tsp65PEvh5jDiG-99" target="NTSCA3tsp65PEvh5jDiG-100">
          <mxGeometry relative="1" as="geometry" />
        </mxCell>
        <mxCell id="NTSCA3tsp65PEvh5jDiG-157" style="edgeStyle=orthogonalEdgeStyle;rounded=0;orthogonalLoop=1;jettySize=auto;html=1;exitX=0;exitY=0.5;exitDx=0;exitDy=0;entryX=1;entryY=0.5;entryDx=0;entryDy=0;startArrow=none;startFill=0;strokeColor=#FFCD5A;" edge="1" parent="1" source="NTSCA3tsp65PEvh5jDiG-99" target="NTSCA3tsp65PEvh5jDiG-98">
          <mxGeometry relative="1" as="geometry" />
        </mxCell>
        <mxCell id="NTSCA3tsp65PEvh5jDiG-160" value="配置修改" style="edgeLabel;html=1;align=center;verticalAlign=middle;resizable=0;points=[];" vertex="1" connectable="0" parent="NTSCA3tsp65PEvh5jDiG-157">
          <mxGeometry x="0.0197" y="2" relative="1" as="geometry">
            <mxPoint y="-12" as="offset" />
          </mxGeometry>
        </mxCell>
        <mxCell id="NTSCA3tsp65PEvh5jDiG-99" value="&lt;pre style=&quot;font-family: &amp;#34;menlo&amp;#34; ; font-size: 9pt&quot;&gt;&lt;pre style=&quot;font-family: &amp;#34;menlo&amp;#34; ; font-size: 9pt&quot;&gt;&lt;pre style=&quot;font-family: &amp;#34;menlo&amp;#34; ; font-size: 9pt&quot;&gt;&lt;pre style=&quot;font-size: 9pt ; font-family: &amp;#34;menlo&amp;#34;&quot;&gt;ConfigService&lt;/pre&gt;&lt;/pre&gt;&lt;/pre&gt;&lt;/pre&gt;" style="rounded=1;whiteSpace=wrap;html=1;fillColor=#dae8fc;strokeColor=#6c8ebf;" vertex="1" parent="1">
          <mxGeometry x="196.25" y="-265" width="129.38" height="50" as="geometry" />
        </mxCell>
        <mxCell id="NTSCA3tsp65PEvh5jDiG-104" style="edgeStyle=orthogonalEdgeStyle;rounded=0;orthogonalLoop=1;jettySize=auto;html=1;exitX=1;exitY=0.5;exitDx=0;exitDy=0;entryX=0;entryY=0.5;entryDx=0;entryDy=0;entryPerimeter=0;startArrow=classic;startFill=1;strokeColor=#FFCD5A;" edge="1" parent="1" source="NTSCA3tsp65PEvh5jDiG-100" target="NTSCA3tsp65PEvh5jDiG-103">
          <mxGeometry relative="1" as="geometry" />
        </mxCell>
        <mxCell id="NTSCA3tsp65PEvh5jDiG-100" value="&lt;pre style=&quot;font-family: &amp;#34;menlo&amp;#34; ; font-size: 9pt&quot;&gt;&lt;pre style=&quot;font-family: &amp;#34;menlo&amp;#34; ; font-size: 9pt&quot;&gt;&lt;pre style=&quot;font-family: &amp;#34;menlo&amp;#34; ; font-size: 9pt&quot;&gt;&lt;pre style=&quot;font-size: 9pt ; font-family: &amp;#34;menlo&amp;#34;&quot;&gt;DataDriver&lt;/pre&gt;&lt;/pre&gt;&lt;/pre&gt;&lt;/pre&gt;" style="rounded=1;whiteSpace=wrap;html=1;fillColor=#dae8fc;strokeColor=#6c8ebf;" vertex="1" parent="1">
          <mxGeometry x="710" y="-260" width="110" height="40" as="geometry" />
        </mxCell>
        <mxCell id="NTSCA3tsp65PEvh5jDiG-103" value="MySQL" style="shape=cylinder3;whiteSpace=wrap;html=1;boundedLbl=1;backgroundOutline=1;size=6;" vertex="1" parent="1">
          <mxGeometry x="869.9999999999999" y="-267.5" width="70" height="55" as="geometry" />
        </mxCell>
        <mxCell id="NTSCA3tsp65PEvh5jDiG-107" value="&lt;pre style=&quot;font-family: &amp;#34;menlo&amp;#34; ; font-size: 9pt&quot;&gt;&lt;pre style=&quot;font-family: &amp;#34;menlo&amp;#34; ; font-size: 9pt&quot;&gt;&lt;pre style=&quot;font-family: &amp;#34;menlo&amp;#34; ; font-size: 9pt&quot;&gt;&lt;pre style=&quot;font-size: 9pt ; font-family: &amp;#34;menlo&amp;#34;&quot;&gt;getConfig&lt;/pre&gt;&lt;pre style=&quot;font-size: 9pt ; font-family: &amp;#34;menlo&amp;#34;&quot;&gt;（确定表，获取配置）&lt;/pre&gt;&lt;/pre&gt;&lt;/pre&gt;&lt;/pre&gt;" style="rounded=1;whiteSpace=wrap;html=1;fillColor=#fff2cc;strokeColor=#d6b656;" vertex="1" parent="1">
          <mxGeometry x="12.5" y="125" width="108.75" height="90" as="geometry" />
        </mxCell>
        <mxCell id="NTSCA3tsp65PEvh5jDiG-110" style="edgeStyle=orthogonalEdgeStyle;rounded=0;orthogonalLoop=1;jettySize=auto;html=1;exitX=1;exitY=0.5;exitDx=0;exitDy=0;entryX=0;entryY=0.5;entryDx=0;entryDy=0;strokeColor=#FF8987;" edge="1" parent="1" target="NTSCA3tsp65PEvh5jDiG-117" source="NTSCA3tsp65PEvh5jDiG-107">
          <mxGeometry relative="1" as="geometry">
            <mxPoint x="140" y="160" as="sourcePoint" />
          </mxGeometry>
        </mxCell>
        <mxCell id="NTSCA3tsp65PEvh5jDiG-111" style="edgeStyle=orthogonalEdgeStyle;rounded=0;orthogonalLoop=1;jettySize=auto;html=1;exitX=1;exitY=0.5;exitDx=0;exitDy=0;entryX=0;entryY=0.5;entryDx=0;entryDy=0;strokeColor=#FF8987;" edge="1" parent="1" target="NTSCA3tsp65PEvh5jDiG-115" source="NTSCA3tsp65PEvh5jDiG-107">
          <mxGeometry relative="1" as="geometry">
            <mxPoint x="140" y="160" as="sourcePoint" />
          </mxGeometry>
        </mxCell>
        <mxCell id="NTSCA3tsp65PEvh5jDiG-114" style="edgeStyle=orthogonalEdgeStyle;rounded=0;orthogonalLoop=1;jettySize=auto;html=1;exitX=1;exitY=0.5;exitDx=0;exitDy=0;entryX=0;entryY=0.5;entryDx=0;entryDy=0;strokeColor=#FF8987;" edge="1" parent="1" source="NTSCA3tsp65PEvh5jDiG-115" target="NTSCA3tsp65PEvh5jDiG-171">
          <mxGeometry relative="1" as="geometry">
            <mxPoint x="368.75" y="260" as="targetPoint" />
          </mxGeometry>
        </mxCell>
        <mxCell id="NTSCA3tsp65PEvh5jDiG-115" value="&lt;pre style=&quot;font-family: &amp;#34;menlo&amp;#34; ; font-size: 9pt&quot;&gt;&lt;pre style=&quot;font-family: &amp;#34;menlo&amp;#34; ; font-size: 9pt&quot;&gt;&lt;pre style=&quot;font-family: &amp;#34;menlo&amp;#34; ; font-size: 9pt&quot;&gt;&lt;pre style=&quot;font-size: 9pt ; font-family: &amp;#34;menlo&amp;#34;&quot;&gt;&lt;pre style=&quot;font-size: 9pt ; font-family: &amp;#34;menlo&amp;#34;&quot;&gt;MaseratiFilters&lt;/pre&gt;&lt;pre style=&quot;font-size: 9pt ; font-family: &amp;#34;menlo&amp;#34;&quot;&gt;&lt;span style=&quot;font-size: 9pt&quot;&gt;（数据处理）&lt;/span&gt;&lt;br&gt;&lt;/pre&gt;&lt;/pre&gt;&lt;/pre&gt;&lt;/pre&gt;&lt;/pre&gt;" style="rounded=1;whiteSpace=wrap;html=1;fillColor=#a0522d;strokeColor=#6D1F00;fontColor=#ffffff;" vertex="1" parent="1">
          <mxGeometry x="193.75" y="110" width="126.25" height="50" as="geometry" />
        </mxCell>
        <mxCell id="NTSCA3tsp65PEvh5jDiG-116" style="edgeStyle=orthogonalEdgeStyle;rounded=0;orthogonalLoop=1;jettySize=auto;html=1;exitX=1;exitY=0.5;exitDx=0;exitDy=0;entryX=0;entryY=0.5;entryDx=0;entryDy=0;strokeColor=#FF8987;" edge="1" parent="1" source="NTSCA3tsp65PEvh5jDiG-117" target="NTSCA3tsp65PEvh5jDiG-173">
          <mxGeometry relative="1" as="geometry">
            <mxPoint x="368.75" y="260" as="targetPoint" />
          </mxGeometry>
        </mxCell>
        <mxCell id="NTSCA3tsp65PEvh5jDiG-117" value="&lt;pre style=&quot;font-family: &amp;#34;menlo&amp;#34; ; font-size: 9pt&quot;&gt;&lt;pre style=&quot;font-family: &amp;#34;menlo&amp;#34; ; font-size: 9pt&quot;&gt;&lt;pre style=&quot;font-family: &amp;#34;menlo&amp;#34; ; font-size: 9pt&quot;&gt;&lt;pre style=&quot;font-size: 9pt ; font-family: &amp;#34;menlo&amp;#34;&quot;&gt;&lt;pre style=&quot;font-size: 9pt ; font-family: &amp;#34;menlo&amp;#34;&quot;&gt;MaseratiFilters&lt;/pre&gt;&lt;pre style=&quot;font-size: 9pt ; font-family: &amp;#34;menlo&amp;#34;&quot;&gt;&lt;span style=&quot;font-size: 9pt&quot;&gt;（数据处理）&lt;/span&gt;&lt;br&gt;&lt;/pre&gt;&lt;/pre&gt;&lt;/pre&gt;&lt;/pre&gt;&lt;/pre&gt;" style="rounded=1;whiteSpace=wrap;html=1;fillColor=#a0522d;strokeColor=#6D1F00;fontColor=#ffffff;" vertex="1" parent="1">
          <mxGeometry x="193.75" y="170" width="126.25" height="50" as="geometry" />
        </mxCell>
        <mxCell id="NTSCA3tsp65PEvh5jDiG-122" style="edgeStyle=orthogonalEdgeStyle;rounded=0;orthogonalLoop=1;jettySize=auto;html=1;exitX=1;exitY=0.5;exitDx=0;exitDy=0;entryX=0;entryY=0.5;entryDx=0;entryDy=0;startArrow=none;startFill=0;strokeColor=#FF8987;" edge="1" parent="1" source="NTSCA3tsp65PEvh5jDiG-118" target="NTSCA3tsp65PEvh5jDiG-119">
          <mxGeometry relative="1" as="geometry" />
        </mxCell>
        <mxCell id="NTSCA3tsp65PEvh5jDiG-118" value="&lt;pre style=&quot;font-family: &amp;#34;menlo&amp;#34; ; font-size: 9pt&quot;&gt;&lt;pre style=&quot;font-family: &amp;#34;menlo&amp;#34; ; font-size: 9pt&quot;&gt;&lt;pre style=&quot;font-family: &amp;#34;menlo&amp;#34; ; font-size: 9pt&quot;&gt;&lt;pre style=&quot;font-size: 9pt ; font-family: &amp;#34;menlo&amp;#34;&quot;&gt;getResultData&lt;/pre&gt;&lt;pre style=&quot;font-size: 9pt ; font-family: &amp;#34;menlo&amp;#34;&quot;&gt;(根据配置生成&lt;/pre&gt;&lt;pre style=&quot;font-size: 9pt ; font-family: &amp;#34;menlo&amp;#34;&quot;&gt;两种数据结构)&lt;/pre&gt;&lt;/pre&gt;&lt;/pre&gt;&lt;/pre&gt;" style="rounded=1;whiteSpace=wrap;html=1;fillColor=#dae8fc;strokeColor=#6c8ebf;" vertex="1" parent="1">
          <mxGeometry x="550" y="-15" width="120" height="80" as="geometry" />
        </mxCell>
        <mxCell id="NTSCA3tsp65PEvh5jDiG-121" style="edgeStyle=orthogonalEdgeStyle;rounded=0;orthogonalLoop=1;jettySize=auto;html=1;exitX=1;exitY=0.5;exitDx=0;exitDy=0;entryX=0;entryY=0.5;entryDx=0;entryDy=0;entryPerimeter=0;startArrow=none;startFill=0;strokeColor=#FF8987;" edge="1" parent="1" source="NTSCA3tsp65PEvh5jDiG-119" target="NTSCA3tsp65PEvh5jDiG-120">
          <mxGeometry relative="1" as="geometry" />
        </mxCell>
        <mxCell id="NTSCA3tsp65PEvh5jDiG-119" value="&lt;pre style=&quot;font-family: &amp;#34;menlo&amp;#34; ; font-size: 9pt&quot;&gt;&lt;pre style=&quot;font-family: &amp;#34;menlo&amp;#34; ; font-size: 9pt&quot;&gt;&lt;pre style=&quot;font-family: &amp;#34;menlo&amp;#34; ; font-size: 9pt&quot;&gt;&lt;pre style=&quot;font-size: 9pt ; font-family: &amp;#34;menlo&amp;#34;&quot;&gt;KafkaProducer&lt;/pre&gt;&lt;/pre&gt;&lt;/pre&gt;&lt;/pre&gt;" style="rounded=1;whiteSpace=wrap;html=1;fillColor=#dae8fc;strokeColor=#6c8ebf;" vertex="1" parent="1">
          <mxGeometry x="710" y="-5" width="120" height="60" as="geometry" />
        </mxCell>
        <mxCell id="NTSCA3tsp65PEvh5jDiG-120" value="Kafka" style="strokeWidth=2;html=1;shape=mxgraph.flowchart.direct_data;whiteSpace=wrap;fillColor=#f5f5f5;strokeColor=#666666;fontColor=#333333;" vertex="1" parent="1">
          <mxGeometry x="870" y="-5" width="120" height="60" as="geometry" />
        </mxCell>
        <mxCell id="NTSCA3tsp65PEvh5jDiG-124" value="&lt;span style=&quot;color: rgb(245 , 245 , 245)&quot;&gt;源数据处理Filters&lt;/span&gt;" style="rounded=1;whiteSpace=wrap;html=1;align=center;dashed=1;fillColor=#a0522d;strokeColor=#6D1F00;opacity=50;fontColor=#ffffff;horizontal=1;verticalAlign=top;" vertex="1" parent="1">
          <mxGeometry x="12.5" y="364.78" width="520" height="140" as="geometry" />
        </mxCell>
        <mxCell id="NTSCA3tsp65PEvh5jDiG-127" value="" style="edgeStyle=orthogonalEdgeStyle;curved=1;rounded=0;orthogonalLoop=1;jettySize=auto;html=1;fillColor=#FF6666;" edge="1" parent="1" source="NTSCA3tsp65PEvh5jDiG-128" target="NTSCA3tsp65PEvh5jDiG-130">
          <mxGeometry relative="1" as="geometry" />
        </mxCell>
        <mxCell id="NTSCA3tsp65PEvh5jDiG-128" value="&lt;pre style=&quot;font-family: &amp;#34;menlo&amp;#34; ; font-size: 9pt&quot;&gt;&lt;pre style=&quot;font-family: &amp;#34;menlo&amp;#34; ; font-size: 9pt&quot;&gt;&lt;pre style=&quot;font-family: &amp;#34;menlo&amp;#34; ; font-size: 9pt&quot;&gt;&lt;pre style=&quot;font-size: 9pt ; font-family: &amp;#34;menlo&amp;#34;&quot;&gt;Filter01&lt;/pre&gt;&lt;pre style=&quot;font-size: 9pt ; font-family: &amp;#34;menlo&amp;#34;&quot;&gt;（如数据过滤）&lt;/pre&gt;&lt;/pre&gt;&lt;/pre&gt;&lt;/pre&gt;" style="rounded=1;whiteSpace=wrap;html=1;" vertex="1" parent="1">
          <mxGeometry x="42.5" y="416.63000000000005" width="100" height="60" as="geometry" />
        </mxCell>
        <mxCell id="NTSCA3tsp65PEvh5jDiG-129" value="" style="edgeStyle=orthogonalEdgeStyle;curved=1;rounded=0;orthogonalLoop=1;jettySize=auto;html=1;fillColor=#FF6666;" edge="1" parent="1" source="NTSCA3tsp65PEvh5jDiG-130" target="NTSCA3tsp65PEvh5jDiG-132">
          <mxGeometry relative="1" as="geometry" />
        </mxCell>
        <mxCell id="NTSCA3tsp65PEvh5jDiG-130" value="&lt;pre style=&quot;font-family: &amp;#34;menlo&amp;#34; ; font-size: 9pt&quot;&gt;&lt;pre style=&quot;font-family: &amp;#34;menlo&amp;#34; ; font-size: 9pt&quot;&gt;&lt;pre style=&quot;font-family: &amp;#34;menlo&amp;#34; ; font-size: 9pt&quot;&gt;&lt;pre style=&quot;font-size: 9pt ; font-family: &amp;#34;menlo&amp;#34;&quot;&gt;Filter02&lt;/pre&gt;&lt;pre style=&quot;font-size: 9pt ; font-family: &amp;#34;menlo&amp;#34;&quot;&gt;（如数据转换）&lt;/pre&gt;&lt;/pre&gt;&lt;/pre&gt;&lt;/pre&gt;" style="rounded=1;whiteSpace=wrap;html=1;" vertex="1" parent="1">
          <mxGeometry x="165" y="416.63000000000005" width="100" height="60" as="geometry" />
        </mxCell>
        <mxCell id="NTSCA3tsp65PEvh5jDiG-131" value="" style="edgeStyle=orthogonalEdgeStyle;curved=1;rounded=0;orthogonalLoop=1;jettySize=auto;html=1;fillColor=#FF6666;" edge="1" parent="1" source="NTSCA3tsp65PEvh5jDiG-132" target="NTSCA3tsp65PEvh5jDiG-133">
          <mxGeometry relative="1" as="geometry" />
        </mxCell>
        <mxCell id="NTSCA3tsp65PEvh5jDiG-132" value="&lt;pre style=&quot;font-family: &amp;#34;menlo&amp;#34; ; font-size: 9pt&quot;&gt;&lt;pre style=&quot;font-family: &amp;#34;menlo&amp;#34; ; font-size: 9pt&quot;&gt;&lt;pre style=&quot;font-family: &amp;#34;menlo&amp;#34; ; font-size: 9pt&quot;&gt;&lt;pre style=&quot;font-size: 9pt ; font-family: &amp;#34;menlo&amp;#34;&quot;&gt;Filter03&lt;/pre&gt;&lt;pre style=&quot;font-size: 9pt ; font-family: &amp;#34;menlo&amp;#34;&quot;&gt;（如数据填充）&lt;/pre&gt;&lt;/pre&gt;&lt;/pre&gt;&lt;/pre&gt;" style="rounded=1;whiteSpace=wrap;html=1;" vertex="1" parent="1">
          <mxGeometry x="292.5" y="416.63000000000005" width="100" height="60" as="geometry" />
        </mxCell>
        <mxCell id="NTSCA3tsp65PEvh5jDiG-133" value="&lt;pre style=&quot;font-family: &amp;#34;menlo&amp;#34; ; font-size: 9pt&quot;&gt;&lt;pre style=&quot;font-family: &amp;#34;menlo&amp;#34; ; font-size: 9pt&quot;&gt;&lt;pre style=&quot;font-family: &amp;#34;menlo&amp;#34; ; font-size: 9pt&quot;&gt;&lt;pre style=&quot;font-size: 9pt ; font-family: &amp;#34;menlo&amp;#34;&quot;&gt;Filter-xxx&lt;/pre&gt;&lt;pre style=&quot;font-size: 9pt ; font-family: &amp;#34;menlo&amp;#34;&quot;&gt;（其他）&lt;/pre&gt;&lt;/pre&gt;&lt;/pre&gt;&lt;/pre&gt;" style="rounded=1;whiteSpace=wrap;html=1;" vertex="1" parent="1">
          <mxGeometry x="412.5" y="416.63000000000005" width="100" height="60" as="geometry" />
        </mxCell>
        <mxCell id="NTSCA3tsp65PEvh5jDiG-138" style="edgeStyle=orthogonalEdgeStyle;curved=1;rounded=0;orthogonalLoop=1;jettySize=auto;html=1;exitX=0.5;exitY=1;exitDx=0;exitDy=0;fillColor=#FF6666;strokeWidth=2;dashed=1;entryX=0.5;entryY=0;entryDx=0;entryDy=0;" edge="1" parent="1" source="NTSCA3tsp65PEvh5jDiG-117" target="NTSCA3tsp65PEvh5jDiG-124">
          <mxGeometry relative="1" as="geometry">
            <mxPoint x="745" y="490" as="targetPoint" />
            <mxPoint x="670" y="390" as="sourcePoint" />
            <Array as="points">
              <mxPoint x="257" y="270" />
              <mxPoint x="270" y="270" />
              <mxPoint x="270" y="340" />
              <mxPoint x="272" y="340" />
            </Array>
          </mxGeometry>
        </mxCell>
        <mxCell id="NTSCA3tsp65PEvh5jDiG-139" value="&lt;font style=&quot;font-size: 14px&quot;&gt;数据处理Filters（过滤器模式）&lt;/font&gt;" style="text;html=1;align=center;verticalAlign=middle;resizable=0;points=[];labelBackgroundColor=#ffffff;" vertex="1" connectable="0" parent="NTSCA3tsp65PEvh5jDiG-138">
          <mxGeometry x="0.3824" y="-5" relative="1" as="geometry">
            <mxPoint x="15.600000000000009" y="0.28000000000000647" as="offset" />
          </mxGeometry>
        </mxCell>
        <mxCell id="NTSCA3tsp65PEvh5jDiG-140" style="edgeStyle=orthogonalEdgeStyle;curved=1;rounded=0;orthogonalLoop=1;jettySize=auto;html=1;exitX=0.5;exitY=1;exitDx=0;exitDy=0;fillColor=#FF6666;strokeWidth=2;dashed=1;entryX=0.5;entryY=0;entryDx=0;entryDy=0;" edge="1" parent="1" source="NTSCA3tsp65PEvh5jDiG-22" target="NTSCA3tsp65PEvh5jDiG-124">
          <mxGeometry relative="1" as="geometry">
            <mxPoint x="276.25" y="520" as="targetPoint" />
            <mxPoint x="266.875" y="360" as="sourcePoint" />
            <Array as="points">
              <mxPoint x="257" y="100" />
              <mxPoint x="340" y="100" />
              <mxPoint x="340" y="120" />
              <mxPoint x="350" y="120" />
              <mxPoint x="350" y="290" />
              <mxPoint x="270" y="290" />
              <mxPoint x="270" y="340" />
              <mxPoint x="273" y="340" />
            </Array>
          </mxGeometry>
        </mxCell>
        <mxCell id="NTSCA3tsp65PEvh5jDiG-144" style="edgeStyle=orthogonalEdgeStyle;rounded=0;orthogonalLoop=1;jettySize=auto;html=1;exitX=1;exitY=0.5;exitDx=0;exitDy=0;exitPerimeter=0;entryX=0;entryY=0.5;entryDx=0;entryDy=0;startArrow=none;startFill=0;strokeColor=#FF8987;" edge="1" parent="1" source="NTSCA3tsp65PEvh5jDiG-142" target="NTSCA3tsp65PEvh5jDiG-143">
          <mxGeometry relative="1" as="geometry" />
        </mxCell>
        <mxCell id="NTSCA3tsp65PEvh5jDiG-142" value="其他后端Kafka消息" style="strokeWidth=2;html=1;shape=mxgraph.flowchart.direct_data;whiteSpace=wrap;fillColor=#f5f5f5;strokeColor=#666666;fontColor=#333333;" vertex="1" parent="1">
          <mxGeometry x="-440" y="-140" width="222" height="60" as="geometry" />
        </mxCell>
        <mxCell id="NTSCA3tsp65PEvh5jDiG-146" style="edgeStyle=orthogonalEdgeStyle;rounded=0;orthogonalLoop=1;jettySize=auto;html=1;exitX=1;exitY=0.5;exitDx=0;exitDy=0;entryX=0;entryY=0.5;entryDx=0;entryDy=0;startArrow=none;startFill=0;strokeColor=#FF8987;" edge="1" parent="1" source="NTSCA3tsp65PEvh5jDiG-143" target="NTSCA3tsp65PEvh5jDiG-145">
          <mxGeometry relative="1" as="geometry" />
        </mxCell>
        <mxCell id="NTSCA3tsp65PEvh5jDiG-143" value="&lt;pre style=&quot;font-family: &amp;#34;menlo&amp;#34; ; font-size: 9pt&quot;&gt;&lt;pre style=&quot;font-family: &amp;#34;menlo&amp;#34; ; font-size: 9pt&quot;&gt;&lt;pre style=&quot;font-family: &amp;#34;menlo&amp;#34; ; font-size: 9pt&quot;&gt;&lt;pre style=&quot;font-size: 9pt ; font-family: &amp;#34;menlo&amp;#34;&quot;&gt;JsonConsumer&lt;/pre&gt;&lt;/pre&gt;&lt;/pre&gt;&lt;/pre&gt;" style="rounded=1;whiteSpace=wrap;html=1;fillColor=#dae8fc;strokeColor=#6c8ebf;" vertex="1" parent="1">
          <mxGeometry x="-190" y="-140" width="160" height="60" as="geometry" />
        </mxCell>
        <mxCell id="NTSCA3tsp65PEvh5jDiG-149" style="edgeStyle=orthogonalEdgeStyle;rounded=0;orthogonalLoop=1;jettySize=auto;html=1;exitX=1;exitY=0.5;exitDx=0;exitDy=0;entryX=0;entryY=0.5;entryDx=0;entryDy=0;startArrow=none;startFill=0;strokeColor=#FF8987;" edge="1" parent="1" source="NTSCA3tsp65PEvh5jDiG-145" target="NTSCA3tsp65PEvh5jDiG-147">
          <mxGeometry relative="1" as="geometry" />
        </mxCell>
        <mxCell id="NTSCA3tsp65PEvh5jDiG-150" style="edgeStyle=orthogonalEdgeStyle;rounded=0;orthogonalLoop=1;jettySize=auto;html=1;exitX=1;exitY=0.5;exitDx=0;exitDy=0;entryX=0;entryY=0.5;entryDx=0;entryDy=0;startArrow=none;startFill=0;strokeColor=#FF8987;" edge="1" parent="1" source="NTSCA3tsp65PEvh5jDiG-145" target="NTSCA3tsp65PEvh5jDiG-148">
          <mxGeometry relative="1" as="geometry" />
        </mxCell>
        <mxCell id="NTSCA3tsp65PEvh5jDiG-145" value="&lt;pre style=&quot;font-family: &amp;#34;menlo&amp;#34; ; font-size: 9pt&quot;&gt;&lt;pre style=&quot;font-family: &amp;#34;menlo&amp;#34; ; font-size: 9pt&quot;&gt;&lt;pre style=&quot;font-family: &amp;#34;menlo&amp;#34; ; font-size: 9pt&quot;&gt;&lt;pre style=&quot;font-size: 9pt ; font-family: &amp;#34;menlo&amp;#34;&quot;&gt;getConfig&lt;/pre&gt;&lt;pre style=&quot;font-size: 9pt ; font-family: &amp;#34;menlo&amp;#34;&quot;&gt;（确定topic，&lt;/pre&gt;&lt;pre style=&quot;font-size: 9pt ; font-family: &amp;#34;menlo&amp;#34;&quot;&gt;获取配置）&lt;/pre&gt;&lt;/pre&gt;&lt;/pre&gt;&lt;/pre&gt;" style="rounded=1;whiteSpace=wrap;html=1;fillColor=#fff2cc;strokeColor=#d6b656;" vertex="1" parent="1">
          <mxGeometry x="12.5" y="-155" width="108.75" height="90" as="geometry" />
        </mxCell>
        <mxCell id="NTSCA3tsp65PEvh5jDiG-152" style="edgeStyle=orthogonalEdgeStyle;rounded=0;orthogonalLoop=1;jettySize=auto;html=1;exitX=1;exitY=0.5;exitDx=0;exitDy=0;entryX=0;entryY=0.5;entryDx=0;entryDy=0;startArrow=none;startFill=0;strokeColor=#FF8987;" edge="1" parent="1" source="NTSCA3tsp65PEvh5jDiG-147" target="NTSCA3tsp65PEvh5jDiG-175">
          <mxGeometry relative="1" as="geometry" />
        </mxCell>
        <mxCell id="NTSCA3tsp65PEvh5jDiG-147" value="&lt;pre style=&quot;font-family: &amp;#34;menlo&amp;#34; ; font-size: 9pt&quot;&gt;&lt;pre style=&quot;font-family: &amp;#34;menlo&amp;#34; ; font-size: 9pt&quot;&gt;&lt;pre style=&quot;font-family: &amp;#34;menlo&amp;#34; ; font-size: 9pt&quot;&gt;&lt;pre style=&quot;font-size: 9pt ; font-family: &amp;#34;menlo&amp;#34;&quot;&gt;&lt;pre style=&quot;font-size: 9pt ; font-family: &amp;#34;menlo&amp;#34;&quot;&gt;JsonFilters&lt;/pre&gt;&lt;/pre&gt;&lt;pre style=&quot;font-size: 9pt ; font-family: &amp;#34;menlo&amp;#34;&quot;&gt;&lt;pre style=&quot;font-size: 9pt ; font-family: &amp;#34;menlo&amp;#34;&quot;&gt;（数据处理）&lt;/pre&gt;&lt;/pre&gt;&lt;/pre&gt;&lt;/pre&gt;&lt;/pre&gt;" style="rounded=1;whiteSpace=wrap;html=1;fillColor=#a0522d;strokeColor=#6D1F00;fontColor=#ffffff;" vertex="1" parent="1">
          <mxGeometry x="196.25" y="-170" width="126.25" height="50" as="geometry" />
        </mxCell>
        <mxCell id="NTSCA3tsp65PEvh5jDiG-151" style="edgeStyle=orthogonalEdgeStyle;rounded=0;orthogonalLoop=1;jettySize=auto;html=1;exitX=1;exitY=0.5;exitDx=0;exitDy=0;entryX=0;entryY=0.5;entryDx=0;entryDy=0;startArrow=none;startFill=0;strokeColor=#FF8987;" edge="1" parent="1" source="NTSCA3tsp65PEvh5jDiG-148" target="NTSCA3tsp65PEvh5jDiG-177">
          <mxGeometry relative="1" as="geometry" />
        </mxCell>
        <mxCell id="NTSCA3tsp65PEvh5jDiG-148" value="&lt;pre style=&quot;font-family: &amp;#34;menlo&amp;#34; ; font-size: 9pt&quot;&gt;&lt;pre style=&quot;font-family: &amp;#34;menlo&amp;#34; ; font-size: 9pt&quot;&gt;&lt;pre style=&quot;font-family: &amp;#34;menlo&amp;#34; ; font-size: 9pt&quot;&gt;&lt;pre style=&quot;font-size: 9pt ; font-family: &amp;#34;menlo&amp;#34;&quot;&gt;&lt;pre style=&quot;font-size: 9pt ; font-family: &amp;#34;menlo&amp;#34;&quot;&gt;JsonFilters&lt;/pre&gt;&lt;/pre&gt;&lt;pre style=&quot;font-size: 9pt ; font-family: &amp;#34;menlo&amp;#34;&quot;&gt;&lt;pre style=&quot;font-size: 9pt ; font-family: &amp;#34;menlo&amp;#34;&quot;&gt;（数据处理）&lt;/pre&gt;&lt;/pre&gt;&lt;/pre&gt;&lt;/pre&gt;&lt;/pre&gt;" style="rounded=1;whiteSpace=wrap;html=1;fillColor=#a0522d;strokeColor=#6D1F00;fontColor=#ffffff;" vertex="1" parent="1">
          <mxGeometry x="193.75" y="-100" width="126.25" height="50" as="geometry" />
        </mxCell>
        <mxCell id="NTSCA3tsp65PEvh5jDiG-165" style="edgeStyle=orthogonalEdgeStyle;curved=1;rounded=0;orthogonalLoop=1;jettySize=auto;html=1;exitX=0.5;exitY=1;exitDx=0;exitDy=0;fillColor=#FF6666;strokeWidth=2;dashed=1;entryX=0.5;entryY=0;entryDx=0;entryDy=0;" edge="1" parent="1" source="NTSCA3tsp65PEvh5jDiG-148" target="NTSCA3tsp65PEvh5jDiG-124">
          <mxGeometry relative="1" as="geometry">
            <mxPoint x="483.13" y="350" as="targetPoint" />
            <mxPoint x="470.005" y="65" as="sourcePoint" />
            <Array as="points">
              <mxPoint x="257" y="-40" />
              <mxPoint x="360" y="-40" />
              <mxPoint x="360" y="290" />
              <mxPoint x="270" y="290" />
              <mxPoint x="270" y="340" />
              <mxPoint x="273" y="340" />
            </Array>
          </mxGeometry>
        </mxCell>
        <mxCell id="NTSCA3tsp65PEvh5jDiG-166" style="edgeStyle=orthogonalEdgeStyle;rounded=0;orthogonalLoop=1;jettySize=auto;html=1;exitX=1;exitY=0.5;exitDx=0;exitDy=0;entryX=0;entryY=0.5;entryDx=0;entryDy=0;strokeColor=#FF8987;" edge="1" parent="1" source="NTSCA3tsp65PEvh5jDiG-167" target="NTSCA3tsp65PEvh5jDiG-118">
          <mxGeometry relative="1" as="geometry">
            <mxPoint x="1194.12" y="275" as="targetPoint" />
          </mxGeometry>
        </mxCell>
        <mxCell id="NTSCA3tsp65PEvh5jDiG-167" value="&lt;pre style=&quot;font-family: &amp;#34;menlo&amp;#34; ; font-size: 9pt&quot;&gt;&lt;pre style=&quot;font-family: &amp;#34;menlo&amp;#34; ; font-size: 9pt&quot;&gt;&lt;pre style=&quot;font-family: &amp;#34;menlo&amp;#34; ; font-size: 9pt&quot;&gt;&lt;pre style=&quot;font-size: 9pt ; font-family: &amp;#34;menlo&amp;#34;&quot;&gt;&lt;pre style=&quot;font-size: 9pt ; font-family: &amp;#34;menlo&amp;#34;&quot;&gt;&lt;pre style=&quot;font-size: 9pt ; font-family: &amp;#34;menlo&amp;#34;&quot;&gt;ResultFilter&lt;/pre&gt;&lt;/pre&gt;&lt;/pre&gt;&lt;/pre&gt;&lt;/pre&gt;&lt;/pre&gt;" style="rounded=1;whiteSpace=wrap;html=1;fillColor=#a0522d;strokeColor=#6D1F00;fontColor=#ffffff;" vertex="1" parent="1">
          <mxGeometry x="390" y="-30" width="110" height="50" as="geometry" />
        </mxCell>
        <mxCell id="NTSCA3tsp65PEvh5jDiG-168" style="edgeStyle=orthogonalEdgeStyle;rounded=0;orthogonalLoop=1;jettySize=auto;html=1;exitX=1;exitY=0.5;exitDx=0;exitDy=0;entryX=0;entryY=0.5;entryDx=0;entryDy=0;strokeColor=#FF8987;" edge="1" parent="1" source="NTSCA3tsp65PEvh5jDiG-169" target="NTSCA3tsp65PEvh5jDiG-118">
          <mxGeometry relative="1" as="geometry">
            <mxPoint x="1194.12" y="275" as="targetPoint" />
          </mxGeometry>
        </mxCell>
        <mxCell id="NTSCA3tsp65PEvh5jDiG-169" value="&lt;pre style=&quot;font-family: &amp;#34;menlo&amp;#34; ; font-size: 9pt&quot;&gt;&lt;pre style=&quot;font-family: &amp;#34;menlo&amp;#34; ; font-size: 9pt&quot;&gt;&lt;pre style=&quot;font-family: &amp;#34;menlo&amp;#34; ; font-size: 9pt&quot;&gt;&lt;pre style=&quot;font-size: 9pt ; font-family: &amp;#34;menlo&amp;#34;&quot;&gt;&lt;pre style=&quot;font-size: 9pt ; font-family: &amp;#34;menlo&amp;#34;&quot;&gt;&lt;pre style=&quot;font-size: 9pt ; font-family: &amp;#34;menlo&amp;#34;&quot;&gt;ResultFilter&lt;/pre&gt;&lt;/pre&gt;&lt;/pre&gt;&lt;/pre&gt;&lt;/pre&gt;&lt;/pre&gt;" style="rounded=1;whiteSpace=wrap;html=1;fillColor=#a0522d;strokeColor=#6D1F00;fontColor=#ffffff;" vertex="1" parent="1">
          <mxGeometry x="390" y="35" width="110" height="50" as="geometry" />
        </mxCell>
        <mxCell id="NTSCA3tsp65PEvh5jDiG-170" style="edgeStyle=orthogonalEdgeStyle;rounded=0;orthogonalLoop=1;jettySize=auto;html=1;exitX=1;exitY=0.5;exitDx=0;exitDy=0;entryX=0;entryY=0.5;entryDx=0;entryDy=0;strokeColor=#FF8987;" edge="1" parent="1" source="NTSCA3tsp65PEvh5jDiG-171" target="NTSCA3tsp65PEvh5jDiG-118">
          <mxGeometry relative="1" as="geometry">
            <mxPoint x="1194.12" y="275" as="targetPoint" />
          </mxGeometry>
        </mxCell>
        <mxCell id="NTSCA3tsp65PEvh5jDiG-171" value="&lt;pre style=&quot;font-family: &amp;#34;menlo&amp;#34; ; font-size: 9pt&quot;&gt;&lt;pre style=&quot;font-family: &amp;#34;menlo&amp;#34; ; font-size: 9pt&quot;&gt;&lt;pre style=&quot;font-family: &amp;#34;menlo&amp;#34; ; font-size: 9pt&quot;&gt;&lt;pre style=&quot;font-size: 9pt ; font-family: &amp;#34;menlo&amp;#34;&quot;&gt;&lt;pre style=&quot;font-size: 9pt ; font-family: &amp;#34;menlo&amp;#34;&quot;&gt;&lt;pre style=&quot;font-size: 9pt ; font-family: &amp;#34;menlo&amp;#34;&quot;&gt;ResultFilter&lt;/pre&gt;&lt;/pre&gt;&lt;/pre&gt;&lt;/pre&gt;&lt;/pre&gt;&lt;/pre&gt;" style="rounded=1;whiteSpace=wrap;html=1;fillColor=#a0522d;strokeColor=#6D1F00;fontColor=#ffffff;" vertex="1" parent="1">
          <mxGeometry x="390" y="110" width="110" height="50" as="geometry" />
        </mxCell>
        <mxCell id="NTSCA3tsp65PEvh5jDiG-172" style="edgeStyle=orthogonalEdgeStyle;rounded=0;orthogonalLoop=1;jettySize=auto;html=1;exitX=1;exitY=0.5;exitDx=0;exitDy=0;entryX=0;entryY=0.5;entryDx=0;entryDy=0;strokeColor=#FF8987;" edge="1" parent="1" source="NTSCA3tsp65PEvh5jDiG-173" target="NTSCA3tsp65PEvh5jDiG-118">
          <mxGeometry relative="1" as="geometry">
            <mxPoint x="1194.12" y="275" as="targetPoint" />
          </mxGeometry>
        </mxCell>
        <mxCell id="NTSCA3tsp65PEvh5jDiG-173" value="&lt;pre style=&quot;font-family: &amp;#34;menlo&amp;#34; ; font-size: 9pt&quot;&gt;&lt;pre style=&quot;font-family: &amp;#34;menlo&amp;#34; ; font-size: 9pt&quot;&gt;&lt;pre style=&quot;font-family: &amp;#34;menlo&amp;#34; ; font-size: 9pt&quot;&gt;&lt;pre style=&quot;font-size: 9pt ; font-family: &amp;#34;menlo&amp;#34;&quot;&gt;&lt;pre style=&quot;font-size: 9pt ; font-family: &amp;#34;menlo&amp;#34;&quot;&gt;&lt;pre style=&quot;font-size: 9pt ; font-family: &amp;#34;menlo&amp;#34;&quot;&gt;ResultFilter&lt;/pre&gt;&lt;/pre&gt;&lt;/pre&gt;&lt;/pre&gt;&lt;/pre&gt;&lt;/pre&gt;" style="rounded=1;whiteSpace=wrap;html=1;fillColor=#a0522d;strokeColor=#6D1F00;fontColor=#ffffff;" vertex="1" parent="1">
          <mxGeometry x="390" y="170" width="110" height="50" as="geometry" />
        </mxCell>
        <mxCell id="NTSCA3tsp65PEvh5jDiG-174" style="edgeStyle=orthogonalEdgeStyle;rounded=0;orthogonalLoop=1;jettySize=auto;html=1;exitX=1;exitY=0.5;exitDx=0;exitDy=0;entryX=0;entryY=0.5;entryDx=0;entryDy=0;startArrow=none;startFill=0;strokeColor=#FF8987;" edge="1" parent="1" source="NTSCA3tsp65PEvh5jDiG-175" target="NTSCA3tsp65PEvh5jDiG-118">
          <mxGeometry relative="1" as="geometry">
            <mxPoint x="1194.12" y="275" as="targetPoint" />
          </mxGeometry>
        </mxCell>
        <mxCell id="NTSCA3tsp65PEvh5jDiG-175" value="&lt;pre style=&quot;font-family: &amp;#34;menlo&amp;#34; ; font-size: 9pt&quot;&gt;&lt;pre style=&quot;font-family: &amp;#34;menlo&amp;#34; ; font-size: 9pt&quot;&gt;&lt;pre style=&quot;font-family: &amp;#34;menlo&amp;#34; ; font-size: 9pt&quot;&gt;&lt;pre style=&quot;font-size: 9pt ; font-family: &amp;#34;menlo&amp;#34;&quot;&gt;&lt;pre style=&quot;font-size: 9pt ; font-family: &amp;#34;menlo&amp;#34;&quot;&gt;&lt;pre style=&quot;font-size: 9pt ; font-family: &amp;#34;menlo&amp;#34;&quot;&gt;ResultFilter&lt;/pre&gt;&lt;/pre&gt;&lt;/pre&gt;&lt;/pre&gt;&lt;/pre&gt;&lt;/pre&gt;" style="rounded=1;whiteSpace=wrap;html=1;fillColor=#a0522d;strokeColor=#6D1F00;fontColor=#ffffff;" vertex="1" parent="1">
          <mxGeometry x="392.5" y="-170" width="107.5" height="50" as="geometry" />
        </mxCell>
        <mxCell id="NTSCA3tsp65PEvh5jDiG-176" style="edgeStyle=orthogonalEdgeStyle;rounded=0;orthogonalLoop=1;jettySize=auto;html=1;exitX=1;exitY=0.5;exitDx=0;exitDy=0;entryX=0;entryY=0.5;entryDx=0;entryDy=0;startArrow=none;startFill=0;strokeColor=#FF8987;" edge="1" parent="1" source="NTSCA3tsp65PEvh5jDiG-177" target="NTSCA3tsp65PEvh5jDiG-118">
          <mxGeometry relative="1" as="geometry">
            <mxPoint x="1194.12" y="275" as="targetPoint" />
          </mxGeometry>
        </mxCell>
        <mxCell id="NTSCA3tsp65PEvh5jDiG-177" value="&lt;pre style=&quot;font-family: &amp;#34;menlo&amp;#34; ; font-size: 9pt&quot;&gt;&lt;pre style=&quot;font-family: &amp;#34;menlo&amp;#34; ; font-size: 9pt&quot;&gt;&lt;pre style=&quot;font-family: &amp;#34;menlo&amp;#34; ; font-size: 9pt&quot;&gt;&lt;pre style=&quot;font-size: 9pt ; font-family: &amp;#34;menlo&amp;#34;&quot;&gt;&lt;pre style=&quot;font-size: 9pt ; font-family: &amp;#34;menlo&amp;#34;&quot;&gt;&lt;pre style=&quot;font-size: 9pt ; font-family: &amp;#34;menlo&amp;#34;&quot;&gt;ResultFilter&lt;/pre&gt;&lt;/pre&gt;&lt;/pre&gt;&lt;/pre&gt;&lt;/pre&gt;&lt;/pre&gt;" style="rounded=1;whiteSpace=wrap;html=1;fillColor=#a0522d;strokeColor=#6D1F00;fontColor=#ffffff;" vertex="1" parent="1">
          <mxGeometry x="390" y="-100" width="110" height="50" as="geometry" />
        </mxCell>
      </root>
    </mxGraphModel>
  </diagram>
</mxfile>
